<mxfile host="app.diagrams.net" agent="Mozilla/5.0 (X11; Linux x86_64; rv:133.0) Gecko/20100101 Firefox/133.0" version="26.0.1">
  <diagram name="Page-1" id="UmDpN7bGrh56AQTl3aip">
    <mxGraphModel dx="1434" dy="760" grid="1" gridSize="10" guides="1" tooltips="1" connect="1" arrows="1" fold="1" page="1" pageScale="1" pageWidth="827" pageHeight="1169" math="0" shadow="0">
      <root>
        <mxCell id="0" />
        <mxCell id="1" parent="0" />
        <mxCell id="sdrt9KhsMO8m8Gmft6-O-3" value="" style="group" vertex="1" connectable="0" parent="1">
          <mxGeometry x="230" y="190" width="450" height="350" as="geometry" />
        </mxCell>
        <mxCell id="sdrt9KhsMO8m8Gmft6-O-1" value="" style="rounded=0;whiteSpace=wrap;html=1;" vertex="1" parent="sdrt9KhsMO8m8Gmft6-O-3">
          <mxGeometry width="450" height="350" as="geometry" />
        </mxCell>
        <mxCell id="sdrt9KhsMO8m8Gmft6-O-2" value="StudyCourse Frontend" style="text;html=1;align=center;verticalAlign=middle;whiteSpace=wrap;rounded=0;" vertex="1" parent="sdrt9KhsMO8m8Gmft6-O-3">
          <mxGeometry width="150" height="30" as="geometry" />
        </mxCell>
        <mxCell id="sdrt9KhsMO8m8Gmft6-O-13" style="rounded=0;orthogonalLoop=1;jettySize=auto;html=1;strokeColor=default;jumpStyle=none;startArrow=classic;startFill=1;dashed=1;" edge="1" parent="sdrt9KhsMO8m8Gmft6-O-3" source="sdrt9KhsMO8m8Gmft6-O-5" target="sdrt9KhsMO8m8Gmft6-O-11">
          <mxGeometry relative="1" as="geometry" />
        </mxCell>
        <mxCell id="sdrt9KhsMO8m8Gmft6-O-18" value="&lt;div&gt;Data&lt;/div&gt;" style="edgeLabel;html=1;align=center;verticalAlign=middle;resizable=0;points=[];" vertex="1" connectable="0" parent="sdrt9KhsMO8m8Gmft6-O-13">
          <mxGeometry relative="1" as="geometry">
            <mxPoint as="offset" />
          </mxGeometry>
        </mxCell>
        <mxCell id="sdrt9KhsMO8m8Gmft6-O-5" value="&lt;div&gt;app/&lt;/div&gt;(UI components)" style="shape=folder;fontStyle=1;spacingTop=10;tabWidth=40;tabHeight=14;tabPosition=left;html=1;whiteSpace=wrap;fillColor=#8C8C8C;" vertex="1" parent="sdrt9KhsMO8m8Gmft6-O-3">
          <mxGeometry x="50" y="110" width="130" height="90" as="geometry" />
        </mxCell>
        <mxCell id="sdrt9KhsMO8m8Gmft6-O-10" value="&lt;div&gt;environments/&lt;/div&gt;(config files)" style="shape=folder;fontStyle=1;spacingTop=10;tabWidth=40;tabHeight=14;tabPosition=left;html=1;whiteSpace=wrap;fillColor=#8C8C8C;" vertex="1" parent="sdrt9KhsMO8m8Gmft6-O-3">
          <mxGeometry x="250" y="50" width="130" height="90" as="geometry" />
        </mxCell>
        <mxCell id="sdrt9KhsMO8m8Gmft6-O-11" value="&lt;div&gt;shared/&lt;/div&gt;(Services)" style="shape=folder;fontStyle=1;spacingTop=10;tabWidth=40;tabHeight=14;tabPosition=left;html=1;whiteSpace=wrap;fillColor=#8C8C8C;" vertex="1" parent="sdrt9KhsMO8m8Gmft6-O-3">
          <mxGeometry x="250" y="210" width="130" height="90" as="geometry" />
        </mxCell>
        <mxCell id="sdrt9KhsMO8m8Gmft6-O-14" style="rounded=0;orthogonalLoop=1;jettySize=auto;html=1;jumpStyle=none;entryX=0.485;entryY=0.189;entryDx=0;entryDy=0;entryPerimeter=0;dashed=1;" edge="1" parent="sdrt9KhsMO8m8Gmft6-O-3" source="sdrt9KhsMO8m8Gmft6-O-10" target="sdrt9KhsMO8m8Gmft6-O-11">
          <mxGeometry relative="1" as="geometry" />
        </mxCell>
        <mxCell id="sdrt9KhsMO8m8Gmft6-O-12" style="edgeStyle=orthogonalEdgeStyle;rounded=0;orthogonalLoop=1;jettySize=auto;html=1;" edge="1" parent="1" source="sdrt9KhsMO8m8Gmft6-O-4" target="sdrt9KhsMO8m8Gmft6-O-5">
          <mxGeometry relative="1" as="geometry" />
        </mxCell>
        <mxCell id="sdrt9KhsMO8m8Gmft6-O-19" value="Interaction" style="edgeLabel;html=1;align=center;verticalAlign=middle;resizable=0;points=[];" vertex="1" connectable="0" parent="sdrt9KhsMO8m8Gmft6-O-12">
          <mxGeometry x="-0.2364" y="-1" relative="1" as="geometry">
            <mxPoint as="offset" />
          </mxGeometry>
        </mxCell>
        <mxCell id="sdrt9KhsMO8m8Gmft6-O-4" value="User" style="shape=umlActor;verticalLabelPosition=bottom;verticalAlign=top;html=1;" vertex="1" parent="1">
          <mxGeometry x="140" y="315" width="30" height="60" as="geometry" />
        </mxCell>
        <mxCell id="sdrt9KhsMO8m8Gmft6-O-15" value="StudyBase Backend" style="html=1;whiteSpace=wrap;fillColor=#6B6B6B;fontColor=#FFFFFF;" vertex="1" parent="1">
          <mxGeometry x="490" y="570" width="110" height="50" as="geometry" />
        </mxCell>
        <mxCell id="sdrt9KhsMO8m8Gmft6-O-16" style="edgeStyle=orthogonalEdgeStyle;rounded=0;orthogonalLoop=1;jettySize=auto;html=1;startArrow=classic;startFill=1;" edge="1" parent="1" source="sdrt9KhsMO8m8Gmft6-O-11" target="sdrt9KhsMO8m8Gmft6-O-15">
          <mxGeometry relative="1" as="geometry" />
        </mxCell>
        <mxCell id="sdrt9KhsMO8m8Gmft6-O-17" value="Data" style="edgeLabel;html=1;align=center;verticalAlign=middle;resizable=0;points=[];" vertex="1" connectable="0" parent="sdrt9KhsMO8m8Gmft6-O-16">
          <mxGeometry x="-0.1" y="1" relative="1" as="geometry">
            <mxPoint as="offset" />
          </mxGeometry>
        </mxCell>
      </root>
    </mxGraphModel>
  </diagram>
</mxfile>
